<svg width="13" height="12" viewBox="0 0 13 12" fill="none" xmlns="http://www.w3.org/2000/svg">
<rect x="5.25" width="2.25003" height="1.50002" rx="0.750011" fill="#545454"/>
<rect x="5.25" y="10.5002" width="2.25003" height="1.50002" rx="0.750011" fill="#545454"/>
<rect x="5.25" y="5.24976" width="2.25003" height="1.50002" rx="0.750011" fill="#545454"/>
<rect x="5.625" y="2.625" width="1.50002" height="1.50002" rx="0.750011" fill="#545454"/>
<rect x="5.625" y="7.87524" width="1.50002" height="1.50002" rx="0.750011" fill="#545454"/>
<rect x="3" y="2.625" width="1.50002" height="1.50002" rx="0.750011" fill="#545454"/>
<rect x="3" y="7.87524" width="1.50002" height="1.50002" rx="0.750011" fill="#545454"/>
<rect x="2.625" y="5.24976" width="1.50002" height="1.50002" rx="0.750011" fill="#545454"/>
<rect y="5.24976" width="1.50002" height="1.50002" rx="0.750011" fill="#545454"/>
<rect x="8.25" y="2.625" width="1.50002" height="1.50002" rx="0.750011" fill="#545454"/>
<rect x="8.25" y="7.87524" width="1.50002" height="1.50002" rx="0.750011" fill="#545454"/>
<rect x="8.625" y="5.24976" width="1.50002" height="1.50002" rx="0.750011" fill="#545454"/>
<rect x="11.25" y="5.24976" width="1.50002" height="1.50002" rx="0.750011" fill="#545454"/>
</svg>
