<svg width="26" height="23" viewBox="0 0 26 23" fill="none" xmlns="http://www.w3.org/2000/svg">
<path d="M10.7812 2.875C9.64324 2.875 8.54455 3.05356 7.51574 3.40571C6.55163 3.73575 5.69385 4.20163 4.96638 4.79033C3.61774 5.88171 2.875 7.27905 2.875 8.72491C2.875 9.53328 3.10109 10.3185 3.54703 11.0586C4.01166 11.8299 4.71271 12.5363 5.57436 13.1016C6.25807 13.5501 6.71843 14.2684 6.8403 15.077C6.86056 15.2115 6.87691 15.3467 6.88926 15.482C6.9504 15.4254 7.01109 15.3671 7.07151 15.3069C7.61367 14.767 8.34478 14.4689 9.10023 14.4689C9.22035 14.4689 9.34097 14.4764 9.46171 14.4918C9.89656 14.5468 10.3405 14.5748 10.7812 14.5748C11.9193 14.5748 13.0179 14.3962 14.0467 14.0441C15.0109 13.7141 15.8687 13.2482 16.5961 12.6595C17.9448 11.5681 18.6875 10.1708 18.6875 8.72491C18.6875 7.27905 17.9448 5.88176 16.5961 4.79033C15.8687 4.20159 15.0109 3.73575 14.0467 3.40571C13.0179 3.05356 11.9193 2.875 10.7812 2.875ZM10.7812 0C16.7356 0 21.5625 3.90627 21.5625 8.72491C21.5625 13.5435 16.7356 17.4498 10.7812 17.4498C10.2094 17.4498 9.64818 17.4134 9.10041 17.344C6.78455 19.6506 4.11022 20.0642 1.4375 20.125V19.5605C2.88066 18.8562 4.04297 17.5734 4.04297 16.1075C4.04297 15.9029 4.02698 15.7021 3.99737 15.5056C1.55906 13.9061 0 11.4629 0 8.72491C0 3.90627 4.82695 0 10.7812 0V0ZM22.3711 19.5564C22.3711 20.8129 23.1867 21.9125 24.4375 22.5161V23C22.1212 22.9479 19.995 22.5934 17.988 20.6163C17.5132 20.6758 17.0268 20.7071 16.5312 20.7071C14.3869 20.7071 12.4117 20.1285 10.8348 19.1563C14.0844 19.145 17.1522 18.104 19.4786 16.2213C20.6512 15.2723 21.5763 14.1588 22.2281 12.9118C22.9191 11.5896 23.2695 10.1809 23.2695 8.72491C23.2695 8.49023 23.2594 8.25691 23.2413 8.02484C24.8713 9.37102 25.875 11.2058 25.875 13.2285C25.875 15.5754 24.5238 17.6695 22.4106 19.0406C22.385 19.209 22.3711 19.3811 22.3711 19.5564Z" fill="#959595"/>
</svg>
