<svg width="18" height="16" viewBox="0 0 18 16" fill="none" xmlns="http://www.w3.org/2000/svg">
<path d="M15.8995 0.0376307C10.9918 1.56887 5.75589 3.66242 0.489811 5.60466C-0.167442 5.84756 -0.16241 6.73665 0.499876 6.93124C2.03011 7.38048 3.56639 7.85153 5.103 8.32895C5.20264 8.35982 5.31067 8.34606 5.39858 8.29104C7.85514 6.75342 10.3308 5.17387 12.7334 3.6802C12.8578 3.6027 12.9934 3.77783 12.8854 3.87681C10.9334 5.6684 8.90393 7.53179 6.90466 9.366C6.77649 9.48342 6.75334 9.67667 6.8493 9.82262C8.1373 11.7816 9.42094 13.7504 10.6227 15.6842C10.928 16.1767 11.6504 16.0737 11.8678 15.5134C13.7469 10.647 15.7257 5.82944 17.1406 1.27464C17.356 0.576115 16.597 -0.178434 15.8995 0.0376307Z" fill="white"/>
<path d="M4.86523 9.84453C4.87731 11.2063 4.90214 12.5682 4.93938 13.93C4.95683 14.5117 5.6426 14.8348 6.0546 14.4473C6.48539 14.0434 6.92121 13.6357 7.36105 13.2257C7.57376 13.0275 7.61268 12.699 7.4513 12.4507C6.83934 11.5093 6.22034 10.5675 5.60267 9.63047C5.38191 9.29564 4.86188 9.44729 4.86557 9.84453H4.86523Z" fill="white"/>
</svg>
