<svg width="21" height="22" viewBox="0 0 21 22" fill="none" xmlns="http://www.w3.org/2000/svg">
<path d="M15.1149 0H7.94412C7.78204 0 7.6266 0.0643847 7.512 0.17899C7.39739 0.293596 7.33301 0.449034 7.33301 0.611111V16.5C7.33301 16.6621 7.39739 16.8175 7.512 16.9321C7.6266 17.0467 7.78204 17.1111 7.94412 17.1111H20.1663C20.3284 17.1111 20.4839 17.0467 20.5985 16.9321C20.7131 16.8175 20.7775 16.6621 20.7775 16.5V5.66256C20.7774 5.33843 20.6486 5.0276 20.4193 4.79844L15.979 0.358111C15.7499 0.128884 15.439 6.92235e-05 15.1149 0V0ZM19.5552 15.8889H8.55523V1.22222H14.6663V5.5C14.6663 5.66208 14.7307 5.81751 14.8453 5.93212C14.9599 6.04673 15.1154 6.11111 15.2775 6.11111H19.5552V15.8889ZM15.8886 4.88889V1.99589L18.7816 4.88889H15.8886Z" fill="#959595"/>
<path d="M17.1114 18.3332V18.9443C17.1114 19.1064 17.0471 19.2619 16.9324 19.3765C16.8178 19.4911 16.6624 19.5554 16.5003 19.5554H4.2781C4.11603 19.5554 3.96059 19.4911 3.84598 19.3765C3.73138 19.2619 3.66699 19.1064 3.66699 18.9443V3.05545C3.66699 2.89337 3.73138 2.73793 3.84598 2.62333C3.96059 2.50872 4.11603 2.44434 4.2781 2.44434H6.11144V3.66656H4.88921V18.3332H17.1114Z" fill="#959595"/>
<path d="M13.4444 20.7778V21.3889C13.4444 21.551 13.3801 21.7064 13.2655 21.821C13.1508 21.9356 12.9954 22 12.8333 22H0.611111C0.449034 22 0.293596 21.9356 0.17899 21.821C0.0643847 21.7064 0 21.551 0 21.3889V5.50003C0 5.33795 0.0643847 5.18251 0.17899 5.06791C0.293596 4.9533 0.449034 4.88892 0.611111 4.88892H2.44444V6.11114H1.22222V20.7778H13.4444Z" fill="#959595"/>
</svg>
